<?xml version="1.0" encoding="utf-8"?>
<svg xmlns="http://www.w3.org/2000/svg" xmlns:xlink="http://www.w3.org/1999/xlink" style="margin: auto; background: rgb(243, 233, 221); display: block; shape-rendering: auto;" width="200px" height="200px" viewBox="0 0 100 100" preserveAspectRatio="xMidYMid">
<g transform="translate(50 50)">
<g>
<animateTransform attributeName="transform" type="rotate" values="0;45" keyTimes="0;1" dur="0.2s" repeatCount="indefinite"></animateTransform><path d="M31.22498999199199 -7 L44.22498999199199 -7 L44.22498999199199 7 L31.22498999199199 7 A32 32 0 0 1 27.02914963412545 17.129654697513782 L27.02914963412545 17.129654697513782 L36.22153778955057 26.3220428529389 L26.322042852938903 36.22153778955057 L17.129654697513786 27.02914963412545 A32 32 0 0 1 7 31.22498999199199 L7 31.22498999199199 L7.000000000000001 44.22498999199199 L-6.999999999999995 44.22498999199199 L-6.999999999999996 31.224989991991993 A32 32 0 0 1 -17.12965469751378 27.029149634125453 L-17.12965469751378 27.029149634125453 L-26.322042852938896 36.22153778955057 L-36.22153778955057 26.3220428529389 L-27.02914963412545 17.129654697513782 A32 32 0 0 1 -31.22498999199199 7.000000000000009 L-31.22498999199199 7.000000000000009 L-44.22498999199199 7.000000000000011 L-44.22498999199199 -6.999999999999999 L-31.22498999199199 -7.000000000000001 A32 32 0 0 1 -27.029149634125456 -17.129654697513775 L-27.029149634125456 -17.129654697513775 L-36.22153778955058 -26.32204285293889 L-26.32204285293892 -36.22153778955055 L-17.129654697513796 -27.029149634125442 A32 32 0 0 1 -6.9999999999999964 -31.224989991991993 L-6.9999999999999964 -31.224989991991993 L-6.999999999999999 -44.22498999199199 L6.999999999999982 -44.22498999199199 L6.999999999999985 -31.224989991991993 A32 32 0 0 1 17.129654697513786 -27.02914963412545 L17.129654697513786 -27.02914963412545 L26.322042852938903 -36.22153778955057 L36.22153778955056 -26.32204285293892 L27.029149634125442 -17.1296546975138 A32 32 0 0 1 31.22498999199199 -6.999999999999998 M0 -20A20 20 0 1 0 0 20 A20 20 0 1 0 0 -20" fill="#333c83"></path></g></g>
<!-- [ldio] generated by https://loading.io/ --></svg>